<svg width="236" height="213" viewBox="0 0 236 213" fill="none" xmlns="http://www.w3.org/2000/svg">
<path d="M148.806 21.2765C115.922 -28.4515 78.5539 20.6135 63.6067 50.616C-37.038 86.9174 3.81777 121.23 37.1999 127.694C3.81777 177.422 44.3414 178.417 67.0944 172.947C74.0697 243.063 125.389 204.773 149.304 163.996C228.524 143.607 220.553 110.787 205.107 92.3875C238.489 9.34178 181.025 6.85541 148.806 21.2765Z" fill="url(#paint0_linear_1543_448)"/>
<path d="M90.334 17.0947C1.04925 6.35349 16.5944 60.6896 35.5275 89.2003C-3.13598 132.961 52.966 157.493 85.8499 164.289C152.116 250.319 167.894 202.746 167.561 170.257C222.966 189.75 215.559 151.194 204.929 129.48C273.089 99.2453 213.4 65.4966 175.035 52.4016C135.574 -20.798 102.126 -1.63614 90.334 17.0947Z" fill="url(#paint1_linear_1543_448)"/>
<path d="M204.477 90.7736C257.83 118.2 223.585 137.819 199.793 144.201C246.9 211.163 174.218 201.932 131.988 188.947C55.9743 222.606 43.6622 183.53 47.0079 159.784C-30.2548 128.618 14.8151 86.544 47.0079 69.4027C46.651 17.2219 105.446 32.9681 134.887 47.3639C231.778 18.335 221.652 64.2083 204.477 90.7736Z" fill="url(#paint2_linear_1543_448)" stroke="url(#paint3_linear_1543_448)"/>
<path d="M219.067 125.649C219.183 125.649 219.279 125.689 219.357 125.77C219.453 125.877 219.501 125.997 219.501 126.131C219.482 126.533 219.328 126.934 219.038 127.335C218.748 127.737 218.391 128.058 217.966 128.299C217.792 128.433 217.609 128.526 217.416 128.58C217.242 128.634 217.078 128.66 216.923 128.66C216.267 128.66 215.746 128.433 215.359 127.978C214.992 127.523 214.751 126.814 214.635 125.85C213.805 126.867 213.013 127.59 212.26 128.018C211.507 128.446 210.667 128.66 209.74 128.66C208.408 128.66 207.375 128.259 206.641 127.456C205.907 126.653 205.54 125.502 205.54 124.003C205.54 122.424 205.878 121.046 206.554 119.868C207.249 118.691 208.263 117.741 209.595 117.018C209.962 116.831 210.31 116.67 210.638 116.536C210.966 116.376 211.314 116.215 211.681 116.054C212.067 115.921 212.492 115.787 212.955 115.653C213.419 115.519 213.979 115.372 214.635 115.211V113.284C214.635 112.133 214.375 111.224 213.853 110.554C213.332 109.885 212.608 109.551 211.681 109.551C210.947 109.551 210.281 109.765 209.682 110.193C209.103 110.621 208.842 111.076 208.9 111.558C208.9 111.665 208.91 111.772 208.929 111.879C208.948 111.986 208.968 112.093 208.987 112.2C209.006 112.307 209.006 112.428 208.987 112.562C208.987 112.669 208.977 112.789 208.958 112.923C208.842 113.458 208.649 113.833 208.379 114.047C208.128 114.261 207.867 114.368 207.597 114.368C207.191 114.368 206.843 114.168 206.554 113.766C206.283 113.365 206.148 112.87 206.148 112.281C206.148 111.665 206.293 111.09 206.583 110.554C206.872 110.019 207.278 109.551 207.799 109.149C208.301 108.748 208.9 108.427 209.595 108.186C210.29 107.945 211.034 107.824 211.826 107.824C213.467 107.824 214.77 108.293 215.736 109.23C216.721 110.14 217.213 111.397 217.213 113.003V123.642C217.213 124.525 217.261 125.168 217.358 125.569C217.455 125.944 217.609 126.131 217.821 126.131C217.899 126.131 218.024 126.091 218.198 126.011C218.372 125.957 218.536 125.89 218.69 125.81C218.729 125.783 218.758 125.756 218.777 125.73C218.816 125.73 218.845 125.716 218.864 125.689C218.883 125.689 218.903 125.676 218.922 125.649C218.961 125.649 219.009 125.649 219.067 125.649ZM214.635 123.361V116.737C213.766 117.058 213.09 117.326 212.608 117.54C212.125 117.754 211.613 118.035 211.072 118.383C210.165 118.945 209.46 119.694 208.958 120.631C208.456 121.541 208.205 122.518 208.205 123.562C208.205 124.338 208.388 124.98 208.755 125.489C209.122 125.97 209.605 126.211 210.203 126.211C210.918 126.211 211.642 125.984 212.376 125.529C213.129 125.047 213.882 124.325 214.635 123.361Z" fill="white"/>
<path d="M192.958 128.138H187.86C187.725 128.138 187.628 128.058 187.57 127.897C187.531 127.764 187.512 127.576 187.512 127.335C187.512 127.148 187.531 126.961 187.57 126.773C187.628 126.613 187.725 126.533 187.86 126.533H188.178C188.487 126.533 188.7 126.479 188.816 126.372C188.951 126.265 188.893 125.89 188.642 125.248L185.6 117.781C185.427 117.888 185.108 117.968 184.645 118.022C184.2 118.048 183.863 118.062 183.631 118.062V124.766C183.631 125.489 183.708 125.984 183.863 126.252C184.036 126.519 184.384 126.653 184.905 126.653H185.6C185.716 126.653 185.803 126.733 185.861 126.894C185.938 127.081 185.977 127.269 185.977 127.456C185.977 127.67 185.938 127.857 185.861 128.018C185.803 128.179 185.716 128.259 185.6 128.259H178.909C178.774 128.259 178.678 128.179 178.62 128.018C178.581 127.857 178.562 127.67 178.562 127.456C178.562 127.269 178.581 127.081 178.62 126.894C178.678 126.733 178.774 126.653 178.909 126.653H179.46C180.097 126.653 180.512 126.546 180.705 126.332C180.898 126.118 180.995 125.596 180.995 124.766V112.401C180.995 111.491 180.85 110.902 180.56 110.635C180.271 110.34 179.904 110.193 179.46 110.193H178.909C178.774 110.193 178.668 110.099 178.591 109.912C178.533 109.725 178.504 109.511 178.504 109.27C178.504 109.056 178.533 108.855 178.591 108.668C178.668 108.48 178.774 108.387 178.909 108.387H185.716C185.871 108.387 185.977 108.48 186.035 108.668C186.093 108.855 186.122 109.056 186.122 109.27C186.122 109.511 186.093 109.725 186.035 109.912C185.977 110.099 185.871 110.193 185.716 110.193H184.905C184.461 110.193 184.133 110.327 183.92 110.595C183.727 110.835 183.631 111.438 183.631 112.401V116.496C183.998 116.496 184.287 116.496 184.5 116.496C184.712 116.469 184.886 116.429 185.021 116.376C185.156 116.349 185.282 116.309 185.398 116.255C185.514 116.202 185.678 116.108 185.89 115.974C186.083 115.466 186.247 115.037 186.383 114.689C186.518 114.315 186.643 113.953 186.759 113.606C186.856 113.258 186.952 112.91 187.049 112.562C187.165 112.187 187.3 111.759 187.454 111.277C187.84 109.992 188.256 109.056 188.7 108.467C189.144 107.851 189.743 107.543 190.496 107.543C191.075 107.543 191.538 107.744 191.886 108.146C192.253 108.52 192.436 109.042 192.436 109.711C192.436 110.407 192.282 110.969 191.973 111.397C191.664 111.799 191.268 112 190.785 112C190.727 112 190.669 112 190.611 112C190.554 112 190.505 111.986 190.467 111.96C190.409 111.96 190.351 111.946 190.293 111.919C190.254 111.893 190.216 111.866 190.177 111.839C189.887 111.678 189.646 111.545 189.453 111.438C189.279 111.304 189.192 111.237 189.192 111.237C189.096 111.237 189.018 111.277 188.96 111.357C188.903 111.411 188.835 111.531 188.758 111.719C188.68 111.906 188.584 112.174 188.468 112.522C188.352 112.869 188.207 113.311 188.034 113.846C187.86 114.408 187.705 114.85 187.57 115.171C187.454 115.492 187.3 115.894 187.107 116.376L190.467 124.164C190.814 125.047 191.104 125.649 191.336 125.97C191.567 126.292 191.828 126.452 192.118 126.452L192.958 126.533C193.074 126.559 193.16 126.653 193.218 126.814C193.276 126.974 193.305 127.161 193.305 127.376C193.305 127.563 193.276 127.737 193.218 127.897C193.16 128.058 193.074 128.138 192.958 128.138Z" fill="white"/>
<path d="M167.92 110.033H166.935C166.433 110.033 166.095 110.153 165.921 110.394C165.767 110.608 165.69 111.157 165.69 112.04V124.525C165.69 125.275 165.767 125.797 165.921 126.091C166.095 126.385 166.414 126.533 166.877 126.533H167.833C167.949 126.533 168.036 126.613 168.094 126.773C168.171 126.934 168.21 127.121 168.21 127.335C168.21 127.576 168.171 127.764 168.094 127.898C168.036 128.058 167.949 128.138 167.833 128.138H160.968C160.814 128.138 160.717 128.058 160.679 127.898C160.64 127.764 160.621 127.576 160.621 127.335C160.621 127.121 160.64 126.934 160.679 126.773C160.717 126.613 160.814 126.533 160.968 126.533H161.837C162.166 126.533 162.446 126.385 162.677 126.091C162.928 125.797 163.054 125.275 163.054 124.525V113.846L156.71 124.325V124.846C156.71 125.569 156.826 126.024 157.058 126.211C157.309 126.425 157.676 126.533 158.159 126.533H158.854C158.97 126.533 159.066 126.613 159.144 126.773C159.221 126.934 159.259 127.121 159.259 127.335C159.259 127.576 159.221 127.764 159.144 127.898C159.066 128.058 158.97 128.138 158.854 128.138H152.221C152.066 128.138 151.96 128.058 151.902 127.898C151.864 127.764 151.844 127.576 151.844 127.335C151.844 127.121 151.864 126.934 151.902 126.773C151.96 126.613 152.066 126.533 152.221 126.533H152.597C153.273 126.533 153.688 126.412 153.843 126.171C154.017 125.93 154.104 125.368 154.104 124.485V112.522C154.104 111.478 154.026 110.795 153.872 110.474C153.717 110.153 153.379 109.992 152.858 109.992H152.25C152.115 109.992 152.008 109.912 151.931 109.752C151.873 109.564 151.844 109.35 151.844 109.109C151.844 108.895 151.873 108.708 151.931 108.547C152.008 108.387 152.115 108.306 152.25 108.306H158.825C158.96 108.306 159.057 108.4 159.115 108.587C159.173 108.748 159.201 108.935 159.201 109.149C159.201 109.39 159.173 109.604 159.115 109.792C159.057 109.952 158.96 110.033 158.825 110.033H157.869C157.425 110.033 157.116 110.18 156.942 110.474C156.788 110.769 156.71 111.424 156.71 112.441V122.237L163.054 111.438C163.054 110.929 162.967 110.568 162.793 110.354C162.639 110.113 162.417 109.992 162.127 109.992H160.65C160.534 109.992 160.437 109.912 160.36 109.752C160.302 109.564 160.273 109.35 160.273 109.109C160.273 108.895 160.302 108.708 160.36 108.547C160.437 108.387 160.534 108.306 160.65 108.306H167.92C168.055 108.306 168.152 108.4 168.21 108.587C168.268 108.748 168.297 108.935 168.297 109.149C168.297 109.39 168.268 109.604 168.21 109.792C168.152 109.952 168.055 110.033 167.92 110.033ZM163.373 99.9157C163.778 99.9157 164.106 100.103 164.357 100.478C164.628 100.826 164.763 101.281 164.763 101.843C164.763 102.94 164.299 103.877 163.373 104.653C162.446 105.402 161.258 105.777 159.81 105.777C158.4 105.777 157.232 105.402 156.305 104.653C155.378 103.877 154.915 102.94 154.915 101.843C154.915 101.281 155.03 100.826 155.262 100.478C155.513 100.103 155.851 99.9157 156.276 99.9157C156.701 99.9157 157.048 100.076 157.319 100.397C157.589 100.692 157.724 101.08 157.724 101.562V101.762C157.705 101.816 157.686 101.87 157.666 101.923C157.666 101.95 157.666 101.99 157.666 102.043C157.647 102.097 157.628 102.164 157.608 102.244C157.608 102.325 157.599 102.405 157.579 102.485C157.541 102.565 157.521 102.659 157.521 102.766C157.521 102.846 157.521 102.913 157.521 102.967C157.521 103.127 157.55 103.288 157.608 103.449C157.666 103.609 157.724 103.73 157.782 103.81C157.917 103.944 158.188 104.078 158.593 104.211C158.999 104.345 159.404 104.412 159.81 104.412C160.215 104.412 160.621 104.359 161.026 104.252C161.432 104.118 161.702 103.97 161.837 103.81C161.895 103.73 161.953 103.609 162.011 103.449C162.088 103.288 162.127 103.127 162.127 102.967C162.127 102.913 162.117 102.846 162.098 102.766C162.079 102.659 162.069 102.565 162.069 102.485C162.011 102.298 161.973 102.164 161.953 102.084C161.953 101.977 161.953 101.883 161.953 101.803C161.934 101.749 161.924 101.709 161.924 101.682C161.924 101.655 161.924 101.615 161.924 101.562C161.924 101.08 162.05 100.692 162.301 100.397C162.571 100.076 162.928 99.9157 163.373 99.9157Z" fill="white"/>
<path d="M140.826 125.649C140.942 125.649 141.038 125.689 141.115 125.77C141.212 125.877 141.26 125.997 141.26 126.131C141.241 126.533 141.086 126.934 140.797 127.335C140.507 127.737 140.15 128.058 139.725 128.299C139.551 128.433 139.368 128.526 139.175 128.58C139.001 128.634 138.837 128.66 138.682 128.66C138.026 128.66 137.504 128.433 137.118 127.978C136.751 127.523 136.51 126.814 136.394 125.85C135.564 126.867 134.772 127.59 134.019 128.018C133.266 128.446 132.426 128.66 131.499 128.66C130.166 128.66 129.133 128.259 128.4 127.456C127.666 126.653 127.299 125.502 127.299 124.003C127.299 122.424 127.637 121.046 128.313 119.868C129.008 118.691 130.022 117.741 131.354 117.018C131.721 116.831 132.068 116.67 132.397 116.536C132.725 116.376 133.073 116.215 133.44 116.054C133.826 115.921 134.251 115.787 134.714 115.653C135.177 115.519 135.737 115.372 136.394 115.211V113.284C136.394 112.133 136.133 111.224 135.612 110.554C135.091 109.885 134.366 109.551 133.44 109.551C132.706 109.551 132.04 109.765 131.441 110.193C130.862 110.621 130.601 111.076 130.659 111.558C130.659 111.665 130.668 111.772 130.688 111.879C130.707 111.986 130.726 112.093 130.746 112.2C130.765 112.307 130.765 112.428 130.746 112.562C130.746 112.669 130.736 112.789 130.717 112.923C130.601 113.458 130.408 113.833 130.137 114.047C129.886 114.261 129.626 114.368 129.355 114.368C128.95 114.368 128.602 114.168 128.313 113.766C128.042 113.365 127.907 112.87 127.907 112.281C127.907 111.665 128.052 111.09 128.342 110.554C128.631 110.019 129.037 109.551 129.558 109.149C130.06 108.748 130.659 108.427 131.354 108.186C132.049 107.945 132.793 107.824 133.584 107.824C135.226 107.824 136.529 108.293 137.495 109.23C138.48 110.14 138.972 111.397 138.972 113.003V123.642C138.972 124.525 139.02 125.168 139.117 125.569C139.213 125.944 139.368 126.131 139.58 126.131C139.657 126.131 139.783 126.091 139.957 126.011C140.131 125.957 140.295 125.89 140.449 125.81C140.488 125.783 140.517 125.756 140.536 125.73C140.575 125.73 140.604 125.716 140.623 125.689C140.642 125.689 140.662 125.676 140.681 125.649C140.72 125.649 140.768 125.649 140.826 125.649ZM136.394 123.361V116.737C135.525 117.058 134.849 117.326 134.366 117.54C133.884 117.754 133.372 118.035 132.831 118.383C131.924 118.945 131.219 119.694 130.717 120.631C130.215 121.541 129.964 122.518 129.964 123.562C129.964 124.338 130.147 124.98 130.514 125.489C130.881 125.97 131.364 126.211 131.962 126.211C132.677 126.211 133.401 125.984 134.135 125.529C134.888 125.047 135.641 124.325 136.394 123.361Z" fill="white"/>
<path d="M114.659 109.511H114.196C113.674 109.511 113.317 109.685 113.124 110.032C112.931 110.38 112.834 110.889 112.834 111.558V124.365C112.834 125.275 112.921 125.904 113.095 126.251C113.269 126.626 113.645 126.814 114.224 126.814H114.543C114.64 126.814 114.717 126.88 114.775 127.014C114.833 127.175 114.862 127.335 114.862 127.496C114.862 127.71 114.833 127.884 114.775 128.018C114.736 128.152 114.659 128.219 114.543 128.219H108.113C107.978 128.219 107.881 128.152 107.823 128.018C107.785 127.884 107.765 127.71 107.765 127.496C107.765 127.335 107.794 127.175 107.852 127.014C107.91 126.88 107.997 126.814 108.113 126.814H108.576C109.233 126.814 109.667 126.64 109.88 126.292C110.092 125.97 110.198 125.301 110.198 124.284V118.262C109.503 119.226 108.847 119.922 108.229 120.35C107.63 120.751 106.925 120.952 106.114 120.952C104.801 120.952 103.855 120.511 103.276 119.627C102.696 118.717 102.407 117.259 102.407 115.251V111.478C102.407 110.942 102.262 110.487 101.972 110.113C101.682 109.711 101.258 109.511 100.698 109.511C100.698 109.511 100.649 109.524 100.553 109.551C100.456 109.551 100.369 109.537 100.292 109.511C100.099 109.457 100.002 109.23 100.002 108.828C100.002 108.427 100.109 108.226 100.321 108.226H106.983C107.099 108.226 107.176 108.293 107.215 108.427C107.273 108.534 107.302 108.668 107.302 108.828C107.302 109.015 107.273 109.176 107.215 109.31C107.176 109.444 107.099 109.511 106.983 109.511H106.549C105.95 109.511 105.545 109.658 105.332 109.952C105.139 110.247 105.042 110.702 105.042 111.317V115.211C105.042 116.496 105.178 117.446 105.448 118.062C105.718 118.651 106.143 118.945 106.722 118.945C107.36 118.945 107.949 118.717 108.489 118.262C109.03 117.807 109.6 117.045 110.198 115.974L110.227 111.518C110.227 110.902 110.073 110.421 109.764 110.073C109.474 109.698 109.078 109.511 108.576 109.511H108.084C107.968 109.511 107.881 109.444 107.823 109.31C107.785 109.176 107.765 109.015 107.765 108.828C107.765 108.668 107.785 108.534 107.823 108.427C107.881 108.293 107.968 108.226 108.084 108.226H114.659C114.775 108.226 114.852 108.293 114.891 108.427C114.949 108.534 114.978 108.668 114.978 108.828C114.978 109.015 114.949 109.176 114.891 109.31C114.852 109.444 114.775 109.511 114.659 109.511Z" fill="white"/>
<path d="M89.4473 109.992H89.0707C88.5107 109.992 88.1052 110.113 87.8542 110.354C87.6032 110.568 87.3618 111.009 87.1301 111.678L81.6845 128.62C81.1052 130.467 80.5259 131.725 79.9466 132.394C79.3866 133.063 78.6432 133.397 77.7163 133.397C76.9439 133.397 76.3549 133.17 75.9494 132.715C75.5439 132.26 75.3411 131.618 75.3411 130.788C75.3411 130.226 75.4859 129.717 75.7756 129.262C76.0652 128.807 76.4321 128.58 76.8763 128.58C77.108 128.58 77.3301 128.66 77.5425 128.821C77.7549 129.008 77.9094 129.236 78.0059 129.503C78.1797 129.985 78.3052 130.279 78.3825 130.387C78.4597 130.494 78.6045 130.547 78.817 130.547C79.0487 130.547 79.2708 130.4 79.4832 130.106C79.7149 129.811 79.9176 129.383 80.0914 128.821L81.0183 125.97L75.8045 110.996C75.6694 110.675 75.4956 110.447 75.2832 110.314C75.0708 110.18 74.7714 110.113 74.3852 110.113H73.8349C73.719 110.113 73.6321 110.019 73.5742 109.832C73.5163 109.644 73.4873 109.43 73.4873 109.189C73.4873 108.975 73.5163 108.775 73.5742 108.587C73.6321 108.4 73.719 108.306 73.8349 108.306H79.8308C79.9659 108.306 80.0625 108.387 80.1204 108.547C80.1783 108.708 80.2073 108.882 80.2073 109.069C80.2073 109.31 80.1783 109.511 80.1204 109.671C80.0625 109.832 79.9659 109.912 79.8308 109.912H79.4542C79.0487 109.912 78.7976 110.086 78.7011 110.434C78.6239 110.782 78.6721 111.157 78.8459 111.558L82.4666 121.755L85.479 112.401C85.7687 111.491 85.8363 110.849 85.6818 110.474C85.5466 110.099 85.1604 109.912 84.5232 109.912H84.3204C84.2045 109.912 84.1176 109.832 84.0597 109.671C84.0018 109.511 83.9728 109.31 83.9728 109.069C83.9728 108.882 84.0018 108.708 84.0597 108.547C84.1176 108.387 84.2045 108.306 84.3204 108.306H89.4473C89.5632 108.306 89.6501 108.4 89.708 108.587C89.7852 108.748 89.8238 108.935 89.8238 109.149C89.8238 109.39 89.7852 109.591 89.708 109.751C89.6501 109.912 89.5632 109.992 89.4473 109.992Z" fill="white"/>
<path d="M50.5936 113.003C51.366 111.585 52.1191 110.581 52.8529 109.992C53.5867 109.404 54.4556 109.109 55.4598 109.109C56.3867 109.109 57.246 109.377 58.0377 109.912C58.8487 110.421 59.5439 111.13 60.1232 112.04C60.7025 112.95 61.1563 114.034 61.4846 115.292C61.8322 116.523 62.006 117.861 62.006 119.306C62.006 120.698 61.8611 121.996 61.5715 123.2C61.2818 124.405 60.8666 125.462 60.326 126.372C59.766 127.282 59.0708 127.991 58.2404 128.5C57.4294 129.008 56.4929 129.262 55.4308 129.262C53.4032 129.262 51.7908 128.125 50.5936 125.85C49.4156 123.575 48.8267 120.484 48.8267 116.576C48.8267 115.238 48.8846 113.9 49.0005 112.562C49.1163 111.224 49.2805 109.952 49.4929 108.748C49.7053 107.517 49.966 106.393 50.2749 105.376C50.5839 104.332 50.9315 103.449 51.3177 102.726C51.8005 101.816 52.3894 101.08 53.0846 100.518C53.7991 99.9559 54.5232 99.6748 55.257 99.6748C55.3729 99.6748 55.508 99.6882 55.6625 99.715C55.817 99.715 55.9811 99.715 56.1549 99.715C56.348 99.7418 56.5315 99.7685 56.7053 99.7953C56.8984 99.7953 57.0722 99.8087 57.2267 99.8354C57.3811 99.8622 57.5163 99.8756 57.6322 99.8756C57.7673 99.8756 57.8832 99.8756 57.9798 99.8756C58.4432 99.8756 58.9163 99.7551 59.3991 99.5143C59.9011 99.2466 60.326 98.8719 60.6735 98.3902C60.8087 98.2028 60.9149 98.0824 60.9922 98.0289C61.0694 97.9486 61.166 97.9084 61.2818 97.9084C61.3591 97.9084 61.4267 97.9486 61.4846 98.0289C61.5618 98.1091 61.6004 98.1894 61.6004 98.2697C61.6004 98.7515 61.446 99.3537 61.137 100.076C60.828 100.772 60.4708 101.334 60.0653 101.762C59.7177 102.164 59.3122 102.472 58.8487 102.686C58.4046 102.9 58.028 102.98 57.7191 102.927L56.908 102.806C56.7342 102.779 56.5798 102.766 56.4446 102.766C56.3287 102.739 56.2225 102.713 56.126 102.686C56.0487 102.686 55.9715 102.686 55.8942 102.686C55.8363 102.659 55.7977 102.632 55.7784 102.606C55.6625 102.606 55.5853 102.606 55.5467 102.606C55.508 102.579 55.4404 102.565 55.3439 102.565C54.3977 102.565 53.5963 102.94 52.9398 103.689C52.3025 104.439 51.8391 105.536 51.5494 106.981C51.3756 107.784 51.2018 108.748 51.028 109.872C50.8542 110.969 50.7094 112.013 50.5936 113.003ZM55.4018 127.777C55.9425 127.777 56.4542 127.55 56.937 127.095C57.4198 126.666 57.8446 126.064 58.2115 125.288C58.5591 124.512 58.8391 123.602 59.0515 122.558C59.2639 121.514 59.3701 120.39 59.3701 119.186C59.3701 116.697 59.0032 114.676 58.2694 113.124C57.5356 111.545 56.5894 110.755 55.4308 110.755C54.2722 110.755 53.3356 111.545 52.6211 113.124C51.926 114.703 51.5784 116.75 51.5784 119.266C51.5784 120.497 51.6653 121.635 51.8391 122.679C52.0322 123.722 52.3025 124.619 52.6501 125.368C52.9977 126.144 53.4032 126.733 53.8667 127.135C54.3301 127.563 54.8418 127.777 55.4018 127.777Z" fill="white"/>
<path d="M29.4083 97.4668C30.7407 97.4668 31.9573 97.8549 33.058 98.631C34.178 99.4072 35.1435 100.491 35.9545 101.883C36.7656 103.275 37.3932 104.934 37.8373 106.861C38.3007 108.788 38.5325 110.902 38.5325 113.204C38.5325 115.506 38.3007 117.62 37.8373 119.547C37.3932 121.474 36.7656 123.133 35.9545 124.525C35.1628 125.917 34.2069 127.001 33.0869 127.777C31.9863 128.553 30.789 128.941 29.4952 128.941C28.1628 128.941 26.9366 128.553 25.8166 127.777C24.7159 127.001 23.7601 125.917 22.949 124.525C22.138 123.107 21.5007 121.447 21.0373 119.547C20.5932 117.62 20.3711 115.506 20.3711 113.204C20.3711 110.902 20.5932 108.788 21.0373 106.861C21.4814 104.934 22.0994 103.275 22.8911 101.883C23.6828 100.491 24.629 99.4072 25.7297 98.631C26.8497 97.8549 28.0759 97.4668 29.4083 97.4668ZM29.4083 126.934C30.2966 126.934 31.1173 126.599 31.8704 125.93C32.6428 125.261 33.309 124.311 33.869 123.08C34.4097 121.876 34.8345 120.43 35.1435 118.744C35.4718 117.058 35.6359 115.211 35.6359 113.204C35.6359 111.17 35.4814 109.31 35.1725 107.624C34.8635 105.938 34.4387 104.492 33.898 103.288C33.3573 102.084 32.7104 101.147 31.9573 100.478C31.2042 99.8086 30.3738 99.4741 29.4663 99.4741C28.5587 99.4741 27.7187 99.822 26.9463 100.518C26.1932 101.187 25.5463 102.124 25.0056 103.328C24.4456 104.532 24.0111 105.978 23.7021 107.664C23.4125 109.35 23.2676 111.197 23.2676 113.204C23.2676 115.211 23.4125 117.058 23.7021 118.744C24.0111 120.404 24.4456 121.849 25.0056 123.08C25.5463 124.284 26.1932 125.221 26.9463 125.89C27.6994 126.586 28.5201 126.934 29.4083 126.934Z" fill="white"/>
<path d="M202.854 140.709H200.715C200.659 140.709 200.618 140.688 200.594 140.647C200.578 140.613 200.57 140.565 200.57 140.504C200.57 140.456 200.578 140.408 200.594 140.36C200.618 140.319 200.659 140.298 200.715 140.298H200.849C200.979 140.298 201.068 140.285 201.117 140.257C201.173 140.23 201.149 140.134 201.044 139.97L199.768 138.061C199.695 138.088 199.561 138.108 199.366 138.122C199.18 138.129 199.038 138.132 198.941 138.132V139.847C198.941 140.031 198.974 140.158 199.038 140.226C199.111 140.295 199.257 140.329 199.476 140.329H199.768C199.816 140.329 199.853 140.35 199.877 140.391C199.909 140.439 199.926 140.486 199.926 140.534C199.926 140.589 199.909 140.637 199.877 140.678C199.853 140.719 199.816 140.74 199.768 140.74H196.96C196.903 140.74 196.863 140.719 196.839 140.678C196.822 140.637 196.814 140.589 196.814 140.534C196.814 140.486 196.822 140.439 196.839 140.391C196.863 140.35 196.903 140.329 196.96 140.329H197.191C197.458 140.329 197.633 140.302 197.714 140.247C197.795 140.192 197.835 140.059 197.835 139.847V136.685C197.835 136.452 197.774 136.302 197.653 136.233C197.531 136.158 197.377 136.121 197.191 136.121H196.96C196.903 136.121 196.859 136.097 196.827 136.049C196.802 136.001 196.79 135.946 196.79 135.884C196.79 135.83 196.802 135.778 196.827 135.73C196.859 135.683 196.903 135.659 196.96 135.659H199.816C199.881 135.659 199.926 135.683 199.95 135.73C199.974 135.778 199.986 135.83 199.986 135.884C199.986 135.946 199.974 136.001 199.95 136.049C199.926 136.097 199.881 136.121 199.816 136.121H199.476C199.29 136.121 199.152 136.155 199.063 136.223C198.982 136.285 198.941 136.439 198.941 136.685V137.732C199.095 137.732 199.217 137.732 199.306 137.732C199.395 137.725 199.468 137.715 199.524 137.701C199.581 137.694 199.634 137.684 199.682 137.67C199.731 137.657 199.8 137.633 199.889 137.599C199.97 137.469 200.039 137.359 200.096 137.27C200.152 137.174 200.205 137.082 200.254 136.993C200.294 136.904 200.335 136.815 200.375 136.726C200.424 136.63 200.481 136.521 200.545 136.398C200.707 136.069 200.882 135.83 201.068 135.679C201.254 135.522 201.505 135.443 201.821 135.443C202.064 135.443 202.259 135.494 202.405 135.597C202.559 135.693 202.636 135.826 202.636 135.997C202.636 136.175 202.571 136.319 202.441 136.428C202.312 136.531 202.145 136.582 201.943 136.582C201.919 136.582 201.894 136.582 201.87 136.582C201.846 136.582 201.825 136.579 201.809 136.572C201.785 136.572 201.761 136.569 201.736 136.562C201.72 136.555 201.704 136.548 201.688 136.541C201.566 136.5 201.465 136.466 201.384 136.439C201.311 136.404 201.275 136.387 201.275 136.387C201.234 136.387 201.202 136.398 201.177 136.418C201.153 136.432 201.125 136.463 201.092 136.511C201.06 136.558 201.019 136.627 200.971 136.716C200.922 136.805 200.861 136.918 200.788 137.055C200.715 137.198 200.651 137.311 200.594 137.393C200.545 137.475 200.481 137.578 200.4 137.701L201.809 139.693C201.955 139.918 202.077 140.072 202.174 140.155C202.271 140.237 202.38 140.278 202.502 140.278L202.854 140.298C202.903 140.305 202.939 140.329 202.964 140.37C202.988 140.411 203 140.459 203 140.514C203 140.562 202.988 140.606 202.964 140.647C202.939 140.688 202.903 140.709 202.854 140.709Z" fill="#FFFBFB"/>
<path d="M195.667 136.1H195.266C195.055 136.1 194.913 136.131 194.84 136.192C194.776 136.247 194.743 136.384 194.743 136.603V139.795C194.743 139.98 194.776 140.11 194.84 140.185C194.913 140.261 195.043 140.298 195.229 140.298H195.643C195.691 140.298 195.728 140.319 195.752 140.36C195.784 140.408 195.801 140.459 195.801 140.514C195.801 140.575 195.784 140.627 195.752 140.668C195.728 140.709 195.691 140.729 195.643 140.729H192.762C192.697 140.729 192.653 140.709 192.629 140.668C192.612 140.627 192.604 140.575 192.604 140.514C192.604 140.459 192.612 140.408 192.629 140.36C192.653 140.319 192.697 140.298 192.762 140.298H193.127C193.265 140.298 193.382 140.261 193.479 140.185C193.585 140.11 193.637 139.98 193.637 139.795V137.075L190.964 139.754V139.877C190.964 140.055 191.012 140.168 191.109 140.216C191.215 140.271 191.373 140.298 191.583 140.298H191.875C191.924 140.298 191.964 140.319 191.997 140.36C192.029 140.408 192.045 140.459 192.045 140.514C192.045 140.575 192.029 140.627 191.997 140.668C191.964 140.709 191.924 140.729 191.875 140.729H189.092C189.027 140.729 188.983 140.709 188.958 140.668C188.942 140.627 188.934 140.575 188.934 140.514C188.934 140.459 188.942 140.408 188.958 140.36C188.983 140.319 189.027 140.298 189.092 140.298H189.25C189.534 140.298 189.708 140.267 189.773 140.206C189.837 140.144 189.87 140.004 189.87 139.785V136.726C189.87 136.466 189.837 136.295 189.773 136.213C189.716 136.131 189.578 136.09 189.359 136.09H189.092C189.035 136.09 188.995 136.066 188.971 136.018C188.946 135.97 188.934 135.915 188.934 135.854C188.934 135.799 188.946 135.751 188.971 135.71C188.995 135.669 189.035 135.648 189.092 135.648H191.851C191.916 135.648 191.96 135.672 191.984 135.72C192.009 135.761 192.021 135.809 192.021 135.864C192.021 135.925 192.009 135.98 191.984 136.028C191.96 136.076 191.916 136.1 191.851 136.1H191.462C191.276 136.1 191.146 136.138 191.073 136.213C191 136.288 190.964 136.452 190.964 136.706V139.2L193.637 136.439C193.637 136.316 193.601 136.227 193.528 136.172C193.463 136.117 193.37 136.09 193.248 136.09H192.629C192.58 136.09 192.539 136.066 192.507 136.018C192.483 135.97 192.471 135.915 192.471 135.854C192.471 135.799 192.483 135.751 192.507 135.71C192.539 135.669 192.58 135.648 192.629 135.648H195.667C195.732 135.648 195.776 135.672 195.801 135.72C195.825 135.761 195.837 135.809 195.837 135.864C195.837 135.925 195.825 135.98 195.801 136.028C195.776 136.076 195.732 136.1 195.667 136.1Z" fill="#FFFBFB"/>
<path d="M187.872 136.079H187.702C187.41 136.079 187.216 136.117 187.118 136.192C187.021 136.261 186.973 136.384 186.973 136.562V139.703C186.973 139.929 187.017 140.083 187.106 140.165C187.203 140.247 187.378 140.288 187.629 140.288H187.799C187.848 140.288 187.888 140.309 187.92 140.35C187.961 140.397 187.981 140.449 187.981 140.504C187.981 140.565 187.961 140.616 187.92 140.658C187.888 140.705 187.848 140.729 187.799 140.729H184.979C184.923 140.729 184.878 140.705 184.846 140.658C184.821 140.616 184.809 140.565 184.809 140.504C184.809 140.449 184.821 140.397 184.846 140.35C184.878 140.309 184.923 140.288 184.979 140.288H185.15C185.425 140.288 185.611 140.237 185.709 140.134C185.814 140.038 185.867 139.888 185.867 139.682V138.327H183.314V139.662C183.314 139.901 183.351 140.066 183.424 140.155C183.505 140.25 183.687 140.298 183.971 140.298H184.177C184.226 140.298 184.266 140.319 184.299 140.36C184.331 140.408 184.347 140.459 184.347 140.514C184.347 140.575 184.331 140.627 184.299 140.668C184.266 140.709 184.226 140.729 184.177 140.729H181.176C181.111 140.729 181.066 140.709 181.042 140.668C181.018 140.627 181.005 140.575 181.005 140.514C181.005 140.459 181.018 140.408 181.042 140.36C181.066 140.319 181.111 140.298 181.176 140.298H181.37C181.735 140.298 181.965 140.25 182.063 140.155C182.16 140.066 182.209 139.901 182.209 139.662V136.562C182.209 136.37 182.16 136.244 182.063 136.182C181.965 136.114 181.759 136.079 181.443 136.079H181.236C181.18 136.079 181.139 136.059 181.115 136.018C181.09 135.977 181.078 135.925 181.078 135.864C181.078 135.816 181.09 135.771 181.115 135.73C181.139 135.682 181.18 135.659 181.236 135.659H184.153C184.218 135.659 184.258 135.682 184.275 135.73C184.299 135.771 184.311 135.816 184.311 135.864C184.311 135.925 184.299 135.977 184.275 136.018C184.258 136.059 184.218 136.079 184.153 136.079H183.959C183.691 136.079 183.517 136.114 183.436 136.182C183.355 136.244 183.314 136.367 183.314 136.552V137.948H185.867V136.603C185.867 136.432 185.818 136.302 185.721 136.213C185.632 136.124 185.441 136.079 185.15 136.079H184.967C184.919 136.079 184.878 136.059 184.846 136.018C184.821 135.977 184.809 135.925 184.809 135.864C184.809 135.816 184.821 135.771 184.846 135.73C184.878 135.682 184.919 135.659 184.967 135.659H187.872C187.937 135.659 187.977 135.682 187.993 135.73C188.018 135.771 188.03 135.816 188.03 135.864C188.03 135.925 188.018 135.977 187.993 136.018C187.977 136.059 187.937 136.079 187.872 136.079Z" fill="#FFFBFB"/>
<path d="M179.882 135.946H179.687C179.469 135.946 179.319 135.991 179.238 136.079C179.157 136.168 179.116 136.298 179.116 136.47V139.744C179.116 139.977 179.153 140.138 179.226 140.226C179.299 140.322 179.457 140.37 179.7 140.37H179.833C179.874 140.37 179.906 140.387 179.93 140.422C179.955 140.463 179.967 140.504 179.967 140.545C179.967 140.599 179.955 140.644 179.93 140.678C179.914 140.712 179.882 140.729 179.833 140.729H177.135C177.079 140.729 177.038 140.712 177.014 140.678C176.998 140.644 176.989 140.599 176.989 140.545C176.989 140.504 177.002 140.463 177.026 140.422C177.05 140.387 177.087 140.37 177.135 140.37H177.33C177.605 140.37 177.788 140.326 177.877 140.237C177.966 140.155 178.01 139.984 178.01 139.723V138.184C177.719 138.43 177.443 138.608 177.184 138.718C176.933 138.82 176.637 138.872 176.297 138.872C175.746 138.872 175.349 138.759 175.106 138.533C174.863 138.3 174.741 137.927 174.741 137.414V136.449C174.741 136.312 174.68 136.196 174.559 136.1C174.437 135.997 174.259 135.946 174.024 135.946C174.024 135.946 174.004 135.949 173.963 135.956C173.923 135.956 173.886 135.953 173.854 135.946C173.773 135.932 173.732 135.874 173.732 135.772C173.732 135.669 173.777 135.618 173.866 135.618H176.661C176.71 135.618 176.742 135.635 176.759 135.669C176.783 135.696 176.795 135.73 176.795 135.772C176.795 135.819 176.783 135.86 176.759 135.895C176.742 135.929 176.71 135.946 176.661 135.946H176.479C176.228 135.946 176.058 135.984 175.969 136.059C175.888 136.134 175.847 136.251 175.847 136.408V137.404C175.847 137.732 175.904 137.975 176.017 138.132C176.131 138.283 176.309 138.358 176.552 138.358C176.819 138.358 177.066 138.3 177.293 138.184C177.52 138.067 177.759 137.872 178.01 137.599L178.022 136.459C178.022 136.302 177.958 136.179 177.828 136.09C177.706 135.994 177.54 135.946 177.33 135.946H177.123C177.075 135.946 177.038 135.929 177.014 135.895C176.998 135.86 176.989 135.819 176.989 135.772C176.989 135.73 176.998 135.696 177.014 135.669C177.038 135.635 177.075 135.618 177.123 135.618H179.882C179.93 135.618 179.963 135.635 179.979 135.669C180.003 135.696 180.016 135.73 180.016 135.772C180.016 135.819 180.003 135.86 179.979 135.895C179.963 135.929 179.93 135.946 179.882 135.946Z" fill="#FFFBFB"/>
<path d="M173.465 140.073C173.513 140.073 173.554 140.083 173.586 140.103C173.627 140.131 173.647 140.161 173.647 140.196C173.639 140.298 173.574 140.401 173.452 140.504C173.331 140.606 173.181 140.688 173.003 140.75C172.93 140.784 172.853 140.808 172.772 140.822C172.699 140.836 172.63 140.842 172.565 140.842C172.29 140.842 172.071 140.784 171.909 140.668C171.755 140.552 171.654 140.37 171.605 140.124C171.257 140.384 170.925 140.569 170.609 140.678C170.293 140.788 169.94 140.842 169.551 140.842C168.992 140.842 168.559 140.74 168.251 140.534C167.943 140.329 167.789 140.035 167.789 139.652C167.789 139.248 167.931 138.895 168.214 138.594C168.506 138.293 168.931 138.05 169.49 137.866C169.644 137.818 169.79 137.777 169.928 137.742C170.066 137.701 170.212 137.66 170.366 137.619C170.528 137.585 170.706 137.551 170.9 137.517C171.095 137.482 171.33 137.445 171.605 137.404V136.911C171.605 136.617 171.496 136.384 171.277 136.213C171.058 136.042 170.754 135.956 170.366 135.956C170.058 135.956 169.778 136.011 169.527 136.121C169.284 136.23 169.175 136.346 169.199 136.47C169.199 136.497 169.203 136.524 169.211 136.552C169.219 136.579 169.227 136.606 169.235 136.634C169.243 136.661 169.243 136.692 169.235 136.726C169.235 136.754 169.231 136.784 169.223 136.819C169.175 136.955 169.093 137.051 168.98 137.106C168.875 137.161 168.765 137.188 168.652 137.188C168.482 137.188 168.336 137.137 168.214 137.034C168.101 136.931 168.044 136.805 168.044 136.654C168.044 136.497 168.105 136.35 168.227 136.213C168.348 136.076 168.518 135.956 168.737 135.854C168.948 135.751 169.199 135.669 169.49 135.607C169.782 135.546 170.094 135.515 170.426 135.515C171.115 135.515 171.662 135.635 172.067 135.874C172.48 136.107 172.687 136.428 172.687 136.839V139.559C172.687 139.785 172.707 139.949 172.748 140.052C172.788 140.148 172.853 140.196 172.942 140.196C172.974 140.196 173.027 140.185 173.1 140.165C173.173 140.151 173.242 140.134 173.307 140.114C173.323 140.107 173.335 140.1 173.343 140.093C173.359 140.093 173.371 140.09 173.379 140.083C173.388 140.083 173.396 140.079 173.404 140.073C173.42 140.073 173.44 140.073 173.465 140.073ZM171.605 139.487V137.794C171.241 137.876 170.957 137.944 170.754 137.999C170.552 138.054 170.337 138.126 170.11 138.215C169.73 138.358 169.434 138.55 169.223 138.789C169.012 139.022 168.907 139.272 168.907 139.539C168.907 139.737 168.984 139.901 169.138 140.031C169.292 140.155 169.495 140.216 169.746 140.216C170.045 140.216 170.349 140.158 170.657 140.042C170.973 139.919 171.289 139.734 171.605 139.487Z" fill="#FFFBFB"/>
<path d="M167.047 142.043H166.694L166.475 141.653C166.346 141.448 166.232 141.284 166.135 141.161C166.046 141.037 165.953 140.942 165.856 140.873C165.75 140.812 165.633 140.767 165.503 140.74C165.382 140.719 165.228 140.709 165.041 140.709H162.161C162.048 140.709 161.95 140.716 161.869 140.729C161.788 140.743 161.707 140.781 161.626 140.842C161.537 140.897 161.44 140.986 161.335 141.109C161.229 141.239 161.104 141.417 160.958 141.643L160.727 141.982H160.375L160.581 140.421C160.865 140.278 161.1 140.117 161.286 139.939C161.48 139.754 161.647 139.528 161.784 139.262C161.865 139.111 161.942 138.937 162.015 138.738C162.088 138.533 162.153 138.324 162.21 138.112C162.234 137.982 162.258 137.855 162.283 137.732C162.307 137.602 162.327 137.465 162.343 137.321C162.36 137.178 162.372 137.017 162.38 136.839C162.396 136.661 162.412 136.449 162.428 136.203H161.456V135.751H166.986V136.203H166.67C166.427 136.203 166.261 136.237 166.172 136.305C166.082 136.367 166.038 136.487 166.038 136.665V139.898C166.038 140.069 166.103 140.206 166.232 140.309C166.37 140.418 166.585 140.504 166.876 140.565L167.047 142.043ZM164.92 140.226V136.223H163.06C163.02 136.777 162.971 137.256 162.915 137.66C162.866 138.057 162.793 138.41 162.696 138.718C162.607 139.019 162.489 139.289 162.343 139.528C162.197 139.768 162.023 140.001 161.821 140.226H164.92Z" fill="#FFFBFB"/>
<path d="M159.263 140.073C159.312 140.073 159.352 140.083 159.385 140.103C159.425 140.131 159.446 140.161 159.446 140.196C159.438 140.298 159.373 140.401 159.251 140.504C159.13 140.606 158.98 140.688 158.802 140.75C158.729 140.784 158.652 140.808 158.571 140.822C158.498 140.836 158.429 140.842 158.364 140.842C158.089 140.842 157.87 140.784 157.708 140.668C157.554 140.552 157.453 140.37 157.404 140.124C157.056 140.384 156.723 140.569 156.407 140.678C156.091 140.788 155.739 140.842 155.35 140.842C154.791 140.842 154.358 140.74 154.05 140.534C153.742 140.329 153.588 140.035 153.588 139.652C153.588 139.248 153.73 138.895 154.013 138.594C154.305 138.293 154.73 138.05 155.289 137.866C155.443 137.818 155.589 137.777 155.727 137.742C155.865 137.701 156.01 137.66 156.164 137.619C156.326 137.585 156.505 137.551 156.699 137.517C156.894 137.482 157.128 137.445 157.404 137.404V136.911C157.404 136.617 157.295 136.384 157.076 136.213C156.857 136.042 156.553 135.956 156.164 135.956C155.856 135.956 155.577 136.011 155.326 136.121C155.083 136.23 154.973 136.346 154.998 136.47C154.998 136.497 155.002 136.524 155.01 136.552C155.018 136.579 155.026 136.606 155.034 136.634C155.042 136.661 155.042 136.692 155.034 136.726C155.034 136.754 155.03 136.784 155.022 136.819C154.973 136.955 154.892 137.051 154.779 137.106C154.674 137.161 154.564 137.188 154.451 137.188C154.281 137.188 154.135 137.137 154.013 137.034C153.9 136.931 153.843 136.805 153.843 136.654C153.843 136.497 153.904 136.35 154.025 136.213C154.147 136.076 154.317 135.956 154.536 135.854C154.746 135.751 154.998 135.669 155.289 135.607C155.581 135.546 155.893 135.515 156.225 135.515C156.914 135.515 157.461 135.635 157.866 135.874C158.279 136.107 158.486 136.428 158.486 136.839V139.559C158.486 139.785 158.506 139.949 158.546 140.052C158.587 140.148 158.652 140.196 158.741 140.196C158.773 140.196 158.826 140.185 158.899 140.165C158.972 140.151 159.041 140.134 159.105 140.114C159.122 140.107 159.134 140.1 159.142 140.093C159.158 140.093 159.17 140.09 159.178 140.083C159.186 140.083 159.194 140.079 159.203 140.073C159.219 140.073 159.239 140.073 159.263 140.073ZM157.404 139.487V137.794C157.039 137.876 156.756 137.944 156.553 137.999C156.351 138.054 156.136 138.126 155.909 138.215C155.528 138.358 155.233 138.55 155.022 138.789C154.811 139.022 154.706 139.272 154.706 139.539C154.706 139.737 154.783 139.901 154.937 140.031C155.091 140.155 155.293 140.216 155.545 140.216C155.844 140.216 156.148 140.158 156.456 140.042C156.772 139.919 157.088 139.734 157.404 139.487Z" fill="#FFFBFB"/>
<path d="M150.598 137.845C150.776 137.866 150.914 137.893 151.011 137.927C151.108 137.961 151.225 138.009 151.363 138.071C151.663 138.235 151.89 138.416 152.044 138.615C152.198 138.813 152.275 139.036 152.275 139.282C152.275 139.501 152.206 139.706 152.068 139.898C151.938 140.083 151.76 140.244 151.533 140.38C151.306 140.524 151.039 140.634 150.731 140.709C150.431 140.791 150.111 140.832 149.771 140.832C149.382 140.832 149.006 140.777 148.641 140.668C148.276 140.565 147.932 140.401 147.608 140.175C147.535 140.134 147.462 140.069 147.389 139.98C147.316 139.884 147.292 139.795 147.316 139.713C147.341 139.672 147.361 139.645 147.377 139.631C147.401 139.611 147.442 139.6 147.499 139.6C147.555 139.6 147.608 139.611 147.657 139.631C147.705 139.652 147.778 139.693 147.875 139.754C148.118 139.912 148.374 140.031 148.641 140.114C148.916 140.203 149.2 140.247 149.492 140.247C149.929 140.247 150.29 140.151 150.573 139.96C150.857 139.768 150.999 139.522 150.999 139.221C150.999 139.015 150.93 138.82 150.792 138.635C150.654 138.444 150.488 138.307 150.294 138.225C150.164 138.177 150.026 138.143 149.881 138.122C149.735 138.095 149.528 138.071 149.261 138.05C149.22 138.05 149.188 138.03 149.164 137.989C149.147 137.948 149.139 137.907 149.139 137.866C149.139 137.818 149.147 137.773 149.164 137.732C149.188 137.691 149.22 137.671 149.261 137.671C149.747 137.664 150.12 137.582 150.379 137.424C150.646 137.26 150.78 137.031 150.78 136.736C150.78 136.545 150.662 136.374 150.427 136.223C150.192 136.073 149.913 135.997 149.589 135.997C149.37 135.997 149.159 136.032 148.957 136.1C148.754 136.168 148.588 136.261 148.459 136.377C148.378 136.446 148.305 136.538 148.24 136.654C148.175 136.764 148.11 136.901 148.045 137.065L147.985 137.25C147.96 137.311 147.896 137.339 147.79 137.332C147.685 137.325 147.632 137.291 147.632 137.229L147.717 135.566C147.717 135.491 147.766 135.46 147.863 135.474C147.96 135.481 148.033 135.505 148.082 135.546L148.155 135.618C148.212 135.679 148.26 135.727 148.301 135.761C148.341 135.789 148.37 135.802 148.386 135.802C148.426 135.802 148.491 135.789 148.58 135.761C148.677 135.727 148.795 135.689 148.933 135.648C149.062 135.614 149.212 135.58 149.382 135.546C149.561 135.511 149.751 135.494 149.953 135.494C150.537 135.494 151.015 135.597 151.388 135.802C151.768 136.008 151.959 136.274 151.959 136.603C151.959 136.877 151.833 137.126 151.582 137.352C151.331 137.578 151.003 137.742 150.598 137.845Z" fill="#FFFBFB"/>
<path d="M139.605 136.079H139.192C138.981 136.079 138.839 136.11 138.766 136.172C138.701 136.227 138.669 136.367 138.669 136.593V139.785C138.669 139.977 138.701 140.11 138.766 140.185C138.839 140.261 138.973 140.298 139.167 140.298H139.568C139.617 140.298 139.653 140.319 139.678 140.36C139.71 140.401 139.726 140.449 139.726 140.504C139.726 140.565 139.71 140.613 139.678 140.647C139.653 140.688 139.617 140.709 139.568 140.709H136.688C136.623 140.709 136.583 140.688 136.567 140.647C136.55 140.613 136.542 140.565 136.542 140.504C136.542 140.449 136.55 140.401 136.567 140.36C136.583 140.319 136.623 140.298 136.688 140.298H137.053C137.19 140.298 137.308 140.261 137.405 140.185C137.51 140.11 137.563 139.977 137.563 139.785V137.055L134.902 139.734V139.867C134.902 140.052 134.95 140.168 135.047 140.216C135.153 140.271 135.307 140.298 135.509 140.298H135.801C135.85 140.298 135.89 140.319 135.922 140.36C135.955 140.401 135.971 140.449 135.971 140.504C135.971 140.565 135.955 140.613 135.922 140.647C135.89 140.688 135.85 140.709 135.801 140.709H133.018C132.953 140.709 132.908 140.688 132.884 140.647C132.868 140.613 132.86 140.565 132.86 140.504C132.86 140.449 132.868 140.401 132.884 140.36C132.908 140.319 132.953 140.298 133.018 140.298H133.176C133.459 140.298 133.634 140.268 133.698 140.206C133.771 140.144 133.808 140.001 133.808 139.775V136.716C133.808 136.449 133.775 136.274 133.711 136.192C133.646 136.11 133.504 136.069 133.285 136.069H133.03C132.973 136.069 132.929 136.049 132.896 136.008C132.872 135.96 132.86 135.905 132.86 135.843C132.86 135.789 132.872 135.741 132.896 135.7C132.929 135.659 132.973 135.638 133.03 135.638H135.789C135.845 135.638 135.886 135.662 135.91 135.71C135.935 135.751 135.947 135.799 135.947 135.854C135.947 135.915 135.935 135.97 135.91 136.018C135.886 136.059 135.845 136.079 135.789 136.079H135.388C135.201 136.079 135.072 136.117 134.999 136.192C134.934 136.268 134.902 136.435 134.902 136.695V139.2L137.563 136.439C137.563 136.309 137.527 136.216 137.454 136.162C137.389 136.1 137.296 136.069 137.174 136.069H136.554C136.506 136.069 136.465 136.049 136.433 136.008C136.409 135.96 136.396 135.905 136.396 135.843C136.396 135.789 136.409 135.741 136.433 135.7C136.465 135.659 136.506 135.638 136.554 135.638H139.605C139.662 135.638 139.702 135.662 139.726 135.71C139.751 135.751 139.763 135.799 139.763 135.854C139.763 135.915 139.751 135.97 139.726 136.018C139.702 136.059 139.662 136.079 139.605 136.079ZM137.697 133.493C137.867 133.493 138.005 133.541 138.11 133.636C138.223 133.725 138.28 133.842 138.28 133.985C138.28 134.266 138.086 134.506 137.697 134.704C137.308 134.896 136.81 134.991 136.202 134.991C135.611 134.991 135.12 134.896 134.731 134.704C134.343 134.506 134.148 134.266 134.148 133.985C134.148 133.842 134.197 133.725 134.294 133.636C134.399 133.541 134.541 133.493 134.719 133.493C134.898 133.493 135.043 133.534 135.157 133.616C135.27 133.691 135.327 133.79 135.327 133.914V133.965C135.319 133.979 135.311 133.992 135.303 134.006C135.303 134.013 135.303 134.023 135.303 134.037C135.295 134.05 135.286 134.068 135.278 134.088C135.278 134.109 135.274 134.129 135.266 134.15C135.25 134.17 135.242 134.194 135.242 134.222C135.242 134.242 135.242 134.259 135.242 134.273C135.242 134.314 135.254 134.355 135.278 134.396C135.303 134.437 135.327 134.468 135.351 134.488C135.408 134.523 135.521 134.557 135.692 134.591C135.862 134.625 136.032 134.642 136.202 134.642C136.372 134.642 136.542 134.629 136.712 134.601C136.883 134.567 136.996 134.529 137.053 134.488C137.077 134.468 137.101 134.437 137.126 134.396C137.158 134.355 137.174 134.314 137.174 134.273C137.174 134.259 137.17 134.242 137.162 134.222C137.154 134.194 137.15 134.17 137.15 134.15C137.126 134.102 137.109 134.068 137.101 134.047C137.101 134.02 137.101 133.996 137.101 133.975C137.093 133.961 137.089 133.951 137.089 133.944C137.089 133.938 137.089 133.927 137.089 133.914C137.089 133.79 137.142 133.691 137.247 133.616C137.361 133.534 137.51 133.493 137.697 133.493Z" fill="#FFFBFB"/>
<path d="M131.98 136.1H131.579C131.368 136.1 131.226 136.131 131.153 136.192C131.089 136.247 131.056 136.384 131.056 136.603V139.795C131.056 139.98 131.089 140.11 131.153 140.185C131.226 140.261 131.356 140.298 131.542 140.298H131.956C132.004 140.298 132.041 140.319 132.065 140.36C132.097 140.408 132.114 140.459 132.114 140.514C132.114 140.575 132.097 140.627 132.065 140.668C132.041 140.709 132.004 140.729 131.956 140.729H129.075C129.01 140.729 128.966 140.709 128.942 140.668C128.925 140.627 128.917 140.575 128.917 140.514C128.917 140.459 128.925 140.408 128.942 140.36C128.966 140.319 129.01 140.298 129.075 140.298H129.44C129.578 140.298 129.695 140.261 129.792 140.185C129.898 140.11 129.95 139.98 129.95 139.795V137.075L127.277 139.754V139.877C127.277 140.055 127.325 140.168 127.422 140.216C127.528 140.271 127.686 140.298 127.896 140.298H128.188C128.237 140.298 128.277 140.319 128.31 140.36C128.342 140.408 128.358 140.459 128.358 140.514C128.358 140.575 128.342 140.627 128.31 140.668C128.277 140.709 128.237 140.729 128.188 140.729H125.405C125.34 140.729 125.296 140.709 125.271 140.668C125.255 140.627 125.247 140.575 125.247 140.514C125.247 140.459 125.255 140.408 125.271 140.36C125.296 140.319 125.34 140.298 125.405 140.298H125.563C125.847 140.298 126.021 140.267 126.086 140.206C126.15 140.144 126.183 140.004 126.183 139.785V136.726C126.183 136.466 126.15 136.295 126.086 136.213C126.029 136.131 125.891 136.09 125.672 136.09H125.405C125.348 136.09 125.308 136.066 125.284 136.018C125.259 135.97 125.247 135.915 125.247 135.854C125.247 135.799 125.259 135.751 125.284 135.71C125.308 135.669 125.348 135.648 125.405 135.648H128.164C128.229 135.648 128.273 135.672 128.297 135.72C128.322 135.761 128.334 135.809 128.334 135.864C128.334 135.925 128.322 135.98 128.297 136.028C128.273 136.076 128.229 136.1 128.164 136.1H127.775C127.589 136.1 127.459 136.138 127.386 136.213C127.313 136.288 127.277 136.452 127.277 136.706V139.2L129.95 136.439C129.95 136.316 129.914 136.227 129.841 136.172C129.776 136.117 129.683 136.09 129.561 136.09H128.942C128.893 136.09 128.852 136.066 128.82 136.018C128.796 135.97 128.784 135.915 128.784 135.854C128.784 135.799 128.796 135.751 128.82 135.71C128.852 135.669 128.893 135.648 128.942 135.648H131.98C132.045 135.648 132.089 135.672 132.114 135.72C132.138 135.761 132.15 135.809 132.15 135.864C132.15 135.925 132.138 135.98 132.114 136.028C132.089 136.076 132.045 136.1 131.98 136.1Z" fill="#FFFBFB"/>
<path d="M124.869 140.709H122.73C122.673 140.709 122.633 140.688 122.609 140.647C122.592 140.613 122.584 140.565 122.584 140.504C122.584 140.456 122.592 140.408 122.609 140.36C122.633 140.319 122.673 140.298 122.73 140.298H122.864C122.993 140.298 123.083 140.285 123.131 140.257C123.188 140.23 123.164 140.134 123.058 139.97L121.782 138.061C121.709 138.088 121.576 138.108 121.381 138.122C121.195 138.129 121.053 138.132 120.956 138.132V139.847C120.956 140.031 120.988 140.158 121.053 140.226C121.126 140.295 121.272 140.329 121.491 140.329H121.782C121.831 140.329 121.867 140.35 121.892 140.391C121.924 140.439 121.94 140.486 121.94 140.534C121.94 140.589 121.924 140.637 121.892 140.678C121.867 140.719 121.831 140.74 121.782 140.74H118.975C118.918 140.74 118.878 140.719 118.853 140.678C118.837 140.637 118.829 140.589 118.829 140.534C118.829 140.486 118.837 140.439 118.853 140.391C118.878 140.35 118.918 140.329 118.975 140.329H119.206C119.473 140.329 119.647 140.302 119.728 140.247C119.809 140.192 119.85 140.059 119.85 139.847V136.685C119.85 136.452 119.789 136.302 119.668 136.233C119.546 136.158 119.392 136.121 119.206 136.121H118.975C118.918 136.121 118.874 136.097 118.841 136.049C118.817 136.001 118.805 135.946 118.805 135.884C118.805 135.83 118.817 135.778 118.841 135.73C118.874 135.683 118.918 135.659 118.975 135.659H121.831C121.896 135.659 121.94 135.683 121.964 135.73C121.989 135.778 122.001 135.83 122.001 135.884C122.001 135.946 121.989 136.001 121.964 136.049C121.94 136.097 121.896 136.121 121.831 136.121H121.491C121.304 136.121 121.166 136.155 121.077 136.223C120.996 136.285 120.956 136.439 120.956 136.685V137.732C121.11 137.732 121.231 137.732 121.32 137.732C121.409 137.725 121.482 137.715 121.539 137.701C121.596 137.694 121.649 137.684 121.697 137.67C121.746 137.657 121.815 137.633 121.904 137.599C121.985 137.469 122.054 137.359 122.11 137.27C122.167 137.174 122.22 137.082 122.268 136.993C122.309 136.904 122.349 136.815 122.39 136.726C122.438 136.63 122.495 136.521 122.56 136.398C122.722 136.069 122.896 135.83 123.083 135.679C123.269 135.522 123.52 135.443 123.836 135.443C124.079 135.443 124.274 135.494 124.419 135.597C124.573 135.693 124.65 135.826 124.65 135.997C124.65 136.175 124.585 136.319 124.456 136.428C124.326 136.531 124.16 136.582 123.958 136.582C123.933 136.582 123.909 136.582 123.885 136.582C123.86 136.582 123.84 136.579 123.824 136.572C123.8 136.572 123.775 136.569 123.751 136.562C123.735 136.555 123.719 136.548 123.702 136.541C123.581 136.5 123.48 136.466 123.399 136.439C123.326 136.404 123.289 136.387 123.289 136.387C123.249 136.387 123.216 136.398 123.192 136.418C123.168 136.432 123.139 136.463 123.107 136.511C123.074 136.558 123.034 136.627 122.985 136.716C122.937 136.805 122.876 136.918 122.803 137.055C122.73 137.198 122.665 137.311 122.609 137.393C122.56 137.475 122.495 137.578 122.414 137.701L123.824 139.693C123.97 139.918 124.091 140.072 124.188 140.155C124.286 140.237 124.395 140.278 124.517 140.278L124.869 140.298C124.918 140.305 124.954 140.329 124.978 140.37C125.003 140.411 125.015 140.459 125.015 140.514C125.015 140.562 125.003 140.606 124.978 140.647C124.954 140.688 124.918 140.709 124.869 140.709Z" fill="#FFFBFB"/>
<path d="M117.733 139.446C117.782 139.398 117.847 139.412 117.928 139.487C118.017 139.563 118.041 139.624 118.001 139.672C117.677 140.083 117.296 140.384 116.858 140.575C116.429 140.774 115.935 140.873 115.376 140.873C114.971 140.873 114.594 140.805 114.245 140.668C113.905 140.538 113.609 140.353 113.358 140.114C113.107 139.881 112.913 139.6 112.775 139.272C112.637 138.943 112.568 138.587 112.568 138.204C112.568 137.814 112.641 137.452 112.787 137.116C112.941 136.774 113.152 136.48 113.419 136.233C113.678 135.987 113.99 135.792 114.355 135.648C114.719 135.505 115.116 135.433 115.546 135.433C115.862 135.433 116.158 135.467 116.433 135.535C116.708 135.604 116.952 135.696 117.162 135.813C117.373 135.929 117.539 136.066 117.66 136.223C117.782 136.381 117.843 136.548 117.843 136.726C117.843 136.911 117.778 137.061 117.648 137.178C117.519 137.294 117.353 137.352 117.15 137.352C116.956 137.352 116.798 137.301 116.676 137.198C116.563 137.089 116.506 136.949 116.506 136.777C116.506 136.716 116.51 136.665 116.518 136.623C116.534 136.582 116.567 136.528 116.615 136.459C116.64 136.418 116.656 136.381 116.664 136.346C116.68 136.305 116.688 136.274 116.688 136.254C116.688 136.179 116.591 136.103 116.397 136.028C116.21 135.946 116.008 135.905 115.789 135.905C115.53 135.905 115.274 135.953 115.023 136.049C114.78 136.144 114.561 136.288 114.367 136.48C114.173 136.665 114.019 136.897 113.905 137.178C113.792 137.458 113.735 137.78 113.735 138.143C113.735 138.759 113.925 139.255 114.306 139.631C114.687 140.007 115.189 140.196 115.813 140.196C116.186 140.196 116.526 140.137 116.834 140.021C117.142 139.898 117.442 139.706 117.733 139.446Z" fill="#FFFBFB"/>
<path d="M111.133 139.395C111.182 139.34 111.251 139.347 111.34 139.416C111.437 139.484 111.469 139.549 111.437 139.611C111.145 140.014 110.781 140.322 110.343 140.534C109.906 140.747 109.428 140.853 108.909 140.853C108.48 140.853 108.087 140.788 107.73 140.658C107.382 140.528 107.082 140.339 106.831 140.093C106.58 139.853 106.385 139.566 106.248 139.231C106.118 138.889 106.053 138.509 106.053 138.091C106.053 137.715 106.118 137.369 106.248 137.055C106.377 136.733 106.564 136.459 106.807 136.233C107.05 136.001 107.337 135.823 107.67 135.7C108.01 135.57 108.383 135.505 108.788 135.505C109.59 135.505 110.23 135.73 110.708 136.182C111.194 136.634 111.437 137.236 111.437 137.989V138.132H107.256C107.256 138.769 107.435 139.279 107.791 139.662C108.156 140.038 108.634 140.226 109.225 140.226C109.574 140.226 109.91 140.158 110.234 140.021C110.558 139.877 110.858 139.669 111.133 139.395ZM107.256 137.67H110.246C110.246 137.123 110.124 136.706 109.881 136.418C109.638 136.124 109.282 135.977 108.812 135.977C108.35 135.977 107.982 136.127 107.706 136.428C107.439 136.723 107.289 137.137 107.256 137.67Z" fill="#FFFBFB"/>
<path d="M105.189 135.946H104.995C104.776 135.946 104.626 135.991 104.545 136.079C104.464 136.168 104.423 136.298 104.423 136.47V139.744C104.423 139.977 104.46 140.138 104.533 140.226C104.606 140.322 104.764 140.37 105.007 140.37H105.14C105.181 140.37 105.213 140.387 105.238 140.422C105.262 140.463 105.274 140.504 105.274 140.545C105.274 140.599 105.262 140.644 105.238 140.678C105.221 140.712 105.189 140.729 105.14 140.729H102.442C102.386 140.729 102.345 140.712 102.321 140.678C102.305 140.644 102.297 140.599 102.297 140.545C102.297 140.504 102.309 140.463 102.333 140.422C102.357 140.387 102.394 140.37 102.442 140.37H102.637C102.912 140.37 103.095 140.326 103.184 140.237C103.273 140.155 103.317 139.984 103.317 139.723V138.184C103.026 138.43 102.75 138.608 102.491 138.718C102.24 138.82 101.944 138.872 101.604 138.872C101.053 138.872 100.656 138.759 100.413 138.533C100.17 138.3 100.048 137.927 100.048 137.414V136.449C100.048 136.312 99.9875 136.196 99.866 136.1C99.7444 135.997 99.5662 135.946 99.3312 135.946C99.3312 135.946 99.311 135.949 99.2705 135.956C99.2299 135.956 99.1935 135.953 99.1611 135.946C99.0801 135.932 99.0396 135.874 99.0396 135.772C99.0396 135.669 99.0841 135.618 99.1732 135.618H101.968C102.017 135.618 102.049 135.635 102.066 135.669C102.09 135.696 102.102 135.73 102.102 135.772C102.102 135.819 102.09 135.86 102.066 135.895C102.049 135.929 102.017 135.946 101.968 135.946H101.786C101.535 135.946 101.365 135.984 101.276 136.059C101.195 136.134 101.154 136.251 101.154 136.408V137.404C101.154 137.732 101.211 137.975 101.324 138.132C101.438 138.283 101.616 138.358 101.859 138.358C102.126 138.358 102.374 138.3 102.6 138.184C102.827 138.067 103.066 137.872 103.317 137.599L103.33 136.459C103.33 136.302 103.265 136.179 103.135 136.09C103.014 135.994 102.848 135.946 102.637 135.946H102.43C102.382 135.946 102.345 135.929 102.321 135.895C102.305 135.86 102.297 135.819 102.297 135.772C102.297 135.73 102.305 135.696 102.321 135.669C102.345 135.635 102.382 135.618 102.43 135.618H105.189C105.238 135.618 105.27 135.635 105.286 135.669C105.311 135.696 105.323 135.73 105.323 135.772C105.323 135.819 105.311 135.86 105.286 135.895C105.27 135.929 105.238 135.946 105.189 135.946Z" fill="#FFFBFB"/>
<path d="M98.0267 136.1H97.6257C97.415 136.1 97.2732 136.131 97.2003 136.192C97.1355 136.247 97.1031 136.384 97.1031 136.603V139.795C97.1031 139.98 97.1355 140.11 97.2003 140.185C97.2732 140.261 97.4029 140.298 97.5892 140.298H98.0024C98.051 140.298 98.0875 140.319 98.1118 140.36C98.1442 140.408 98.1604 140.459 98.1604 140.514C98.1604 140.575 98.1442 140.627 98.1118 140.668C98.0875 140.709 98.051 140.729 98.0024 140.729H95.1222C95.0573 140.729 95.0128 140.709 94.9885 140.668C94.9723 140.627 94.9642 140.575 94.9642 140.514C94.9642 140.459 94.9723 140.408 94.9885 140.36C95.0128 140.319 95.0573 140.298 95.1222 140.298H95.4867C95.6245 140.298 95.742 140.261 95.8392 140.185C95.9445 140.11 95.9972 139.98 95.9972 139.795V137.075L93.3235 139.754V139.877C93.3235 140.055 93.3721 140.168 93.4693 140.216C93.5747 140.271 93.7327 140.298 93.9433 140.298H94.235C94.2836 140.298 94.3241 140.319 94.3565 140.36C94.3889 140.408 94.4051 140.459 94.4051 140.514C94.4051 140.575 94.3889 140.627 94.3565 140.668C94.3241 140.709 94.2836 140.729 94.235 140.729H91.4519C91.3871 140.729 91.3426 140.709 91.3182 140.668C91.302 140.627 91.2939 140.575 91.2939 140.514C91.2939 140.459 91.302 140.408 91.3182 140.36C91.3426 140.319 91.3871 140.298 91.4519 140.298H91.6099C91.8935 140.298 92.0677 140.267 92.1325 140.206C92.1973 140.144 92.2297 140.004 92.2297 139.785V136.726C92.2297 136.466 92.1973 136.295 92.1325 136.213C92.0758 136.131 91.9381 136.09 91.7193 136.09H91.4519C91.3952 136.09 91.3547 136.066 91.3304 136.018C91.3061 135.97 91.2939 135.915 91.2939 135.854C91.2939 135.799 91.3061 135.751 91.3304 135.71C91.3547 135.669 91.3952 135.648 91.4519 135.648H94.2107C94.2755 135.648 94.3201 135.672 94.3444 135.72C94.3687 135.761 94.3808 135.809 94.3808 135.864C94.3808 135.925 94.3687 135.98 94.3444 136.028C94.3201 136.076 94.2755 136.1 94.2107 136.1H93.8218C93.6354 136.1 93.5058 136.138 93.4329 136.213C93.36 136.288 93.3235 136.452 93.3235 136.706V139.2L95.9972 136.439C95.9972 136.316 95.9607 136.227 95.8878 136.172C95.823 136.117 95.7298 136.09 95.6083 136.09H94.9885C94.9399 136.09 94.8993 136.066 94.8669 136.018C94.8426 135.97 94.8305 135.915 94.8305 135.854C94.8305 135.799 94.8426 135.751 94.8669 135.71C94.8993 135.669 94.9399 135.648 94.9885 135.648H98.0267C98.0916 135.648 98.1361 135.672 98.1604 135.72C98.1847 135.761 98.1969 135.809 98.1969 135.864C98.1969 135.925 98.1847 135.98 98.1604 136.028C98.1361 136.076 98.0916 136.1 98.0267 136.1Z" fill="#FFFBFB"/>
<path d="M90.9768 136.88C90.9768 136.942 90.9323 136.983 90.8431 137.003C90.7621 137.017 90.7054 136.996 90.673 136.942L90.5029 136.675C90.4056 136.538 90.3206 136.428 90.2476 136.346C90.1828 136.257 90.114 136.192 90.041 136.151C89.9681 136.103 89.8871 136.073 89.798 136.059C89.7089 136.045 89.5995 136.038 89.4699 136.038H88.607V139.775C88.607 139.96 88.6434 140.09 88.7164 140.165C88.7974 140.24 88.9594 140.278 89.2025 140.278H89.4091C89.4658 140.278 89.5063 140.302 89.5306 140.35C89.5549 140.398 89.5671 140.449 89.5671 140.504C89.5671 140.565 89.5549 140.617 89.5306 140.658C89.5063 140.705 89.4658 140.729 89.4091 140.729H86.6382C86.5896 140.729 86.5491 140.705 86.5167 140.658C86.4924 140.617 86.4802 140.565 86.4802 140.504C86.4802 140.449 86.4924 140.398 86.5167 140.35C86.5491 140.302 86.5896 140.278 86.6382 140.278H86.8812C87.1243 140.278 87.2863 140.237 87.3674 140.155C87.4565 140.079 87.5011 139.939 87.5011 139.734V136.038H86.468C86.2817 136.038 86.1359 136.073 86.0305 136.141C85.9333 136.209 85.8037 136.381 85.6416 136.654L85.5323 136.849C85.4917 136.904 85.4229 136.921 85.3257 136.901C85.2284 136.873 85.192 136.829 85.2163 136.767L85.5201 135.607H90.7338L90.9768 136.88Z" fill="#FFFBFB"/>
<path d="M84.4724 140.073C84.521 140.073 84.5615 140.083 84.5939 140.103C84.6344 140.131 84.6547 140.161 84.6547 140.196C84.6465 140.298 84.5817 140.401 84.4602 140.504C84.3387 140.606 84.1888 140.688 84.0105 140.75C83.9376 140.784 83.8606 140.808 83.7796 140.822C83.7067 140.836 83.6378 140.842 83.573 140.842C83.2976 140.842 83.0788 140.784 82.9168 140.668C82.7628 140.552 82.6615 140.37 82.6129 140.124C82.2645 140.384 81.9324 140.569 81.6164 140.678C81.3004 140.788 80.948 140.842 80.5591 140.842C80 140.842 79.5666 140.74 79.2587 140.534C78.9508 140.329 78.7969 140.035 78.7969 139.652C78.7969 139.248 78.9387 138.895 79.2222 138.594C79.5139 138.293 79.9393 138.05 80.4983 137.866C80.6522 137.818 80.7981 137.777 80.9358 137.742C81.0735 137.701 81.2194 137.66 81.3733 137.619C81.5354 137.585 81.7136 137.551 81.9081 137.517C82.1025 137.482 82.3375 137.445 82.6129 137.404V136.911C82.6129 136.617 82.5036 136.384 82.2848 136.213C82.066 136.042 81.7622 135.956 81.3733 135.956C81.0654 135.956 80.7859 136.011 80.5348 136.121C80.2917 136.23 80.1823 136.346 80.2066 136.47C80.2066 136.497 80.2107 136.524 80.2188 136.552C80.2269 136.579 80.235 136.606 80.2431 136.634C80.2512 136.661 80.2512 136.692 80.2431 136.726C80.2431 136.754 80.239 136.784 80.2309 136.819C80.1823 136.955 80.1013 137.051 79.9879 137.106C79.8825 137.161 79.7732 137.188 79.6597 137.188C79.4896 137.188 79.3438 137.137 79.2222 137.034C79.1088 136.931 79.0521 136.805 79.0521 136.654C79.0521 136.497 79.1129 136.35 79.2344 136.213C79.3559 136.076 79.5261 135.956 79.7448 135.854C79.9555 135.751 80.2066 135.669 80.4983 135.607C80.79 135.546 81.1019 135.515 81.4341 135.515C82.1228 135.515 82.6697 135.635 83.0748 135.874C83.488 136.107 83.6946 136.428 83.6946 136.839V139.559C83.6946 139.785 83.7148 139.949 83.7553 140.052C83.7958 140.148 83.8607 140.196 83.9498 140.196C83.9822 140.196 84.0348 140.185 84.1078 140.165C84.1807 140.151 84.2495 140.134 84.3144 140.114C84.3306 140.107 84.3427 140.1 84.3508 140.093C84.367 140.093 84.3792 140.09 84.3873 140.083C84.3954 140.083 84.4035 140.079 84.4116 140.073C84.4278 140.073 84.448 140.073 84.4724 140.073ZM82.6129 139.487V137.794C82.2483 137.876 81.9648 137.944 81.7622 137.999C81.5597 138.054 81.345 138.126 81.1181 138.215C80.7373 138.358 80.4416 138.55 80.2309 138.789C80.0203 139.022 79.915 139.272 79.915 139.539C79.915 139.737 79.9919 139.901 80.1459 140.031C80.2998 140.155 80.5024 140.216 80.7535 140.216C81.0533 140.216 81.3571 140.158 81.665 140.042C81.981 139.919 82.297 139.734 82.6129 139.487Z" fill="#FFFBFB"/>
<path d="M75.6816 136.531L73.725 140.647C73.7007 140.688 73.6602 140.705 73.6034 140.699C73.5548 140.699 73.5265 140.682 73.5184 140.647L71.4524 137.106L71.2336 139.693C71.2174 139.836 71.2376 139.966 71.2944 140.083C71.3592 140.206 71.501 140.267 71.7197 140.267H72.2058C72.2626 140.267 72.3031 140.291 72.3274 140.339C72.3598 140.387 72.376 140.442 72.376 140.504C72.376 140.572 72.3598 140.627 72.3274 140.668C72.3031 140.716 72.2626 140.74 72.2058 140.74H69.8117C69.7469 140.74 69.6983 140.716 69.6659 140.668C69.6415 140.627 69.6294 140.572 69.6294 140.504C69.6294 140.442 69.6415 140.387 69.6659 140.339C69.6983 140.291 69.7469 140.267 69.8117 140.267H70.1034C70.2897 140.267 70.4315 140.213 70.5287 140.103C70.634 139.994 70.6948 139.857 70.711 139.693L70.9784 136.47C70.9865 136.367 70.9662 136.292 70.9176 136.244C70.8771 136.189 70.8082 136.151 70.711 136.131L69.8603 135.967C69.7874 135.953 69.7509 135.898 69.7509 135.802C69.759 135.7 69.7995 135.648 69.8725 135.648H71.7805L73.8344 139.303L75.4507 135.648H77.9542C78.0272 135.648 78.0636 135.696 78.0636 135.792C78.0717 135.888 78.0393 135.946 77.9664 135.967L77.1278 136.192C77.0225 136.22 76.9253 136.254 76.8362 136.295C76.7551 136.336 76.7187 136.394 76.7268 136.47L77.0428 139.539C77.0671 139.778 77.1157 139.96 77.1886 140.083C77.2696 140.206 77.4317 140.267 77.6747 140.267H78.0758C78.1244 140.267 78.1649 140.291 78.1973 140.339C78.2297 140.387 78.2459 140.442 78.2459 140.504C78.2459 140.572 78.2297 140.627 78.1973 140.668C78.1649 140.716 78.1244 140.74 78.0758 140.74H75.2076C75.1428 140.74 75.0983 140.716 75.074 140.668C75.0497 140.627 75.0375 140.572 75.0375 140.504C75.0375 140.442 75.0497 140.387 75.074 140.339C75.0983 140.291 75.1428 140.267 75.2076 140.267H75.5844C75.7788 140.267 75.9004 140.237 75.949 140.175C76.0057 140.114 76.0219 139.918 75.9976 139.59L75.6816 136.531Z" fill="#FFFBFB"/>
<path d="M68.5302 139.395C68.5788 139.34 68.6477 139.347 68.7368 139.416C68.834 139.484 68.8664 139.549 68.834 139.611C68.5423 140.014 68.1777 140.322 67.7402 140.534C67.3027 140.747 66.8247 140.853 66.3062 140.853C65.8768 140.853 65.4838 140.788 65.1273 140.658C64.7789 140.528 64.4792 140.339 64.228 140.093C63.9768 139.853 63.7824 139.566 63.6446 139.231C63.515 138.889 63.4502 138.509 63.4502 138.091C63.4502 137.715 63.515 137.369 63.6446 137.055C63.7743 136.733 63.9606 136.459 64.2037 136.233C64.4467 136.001 64.7344 135.823 65.0666 135.7C65.4068 135.57 65.7795 135.505 66.1846 135.505C66.9867 135.505 67.6268 135.73 68.1048 136.182C68.5909 136.634 68.834 137.236 68.834 137.989V138.132H64.6533C64.6533 138.769 64.8316 139.279 65.1881 139.662C65.5527 140.038 66.0307 140.226 66.6221 140.226C66.9705 140.226 67.3068 140.158 67.6308 140.021C67.9549 139.877 68.2547 139.669 68.5302 139.395ZM64.6533 137.67H67.643C67.643 137.123 67.5215 136.706 67.2784 136.418C67.0353 136.124 66.6789 135.977 66.2089 135.977C65.7471 135.977 65.3785 136.127 65.103 136.428C64.8356 136.723 64.6858 137.137 64.6533 137.67Z" fill="#FFFBFB"/>
<path d="M62.575 136.88C62.575 136.942 62.5304 136.983 62.4413 137.003C62.3603 137.017 62.3036 136.996 62.2711 136.942L62.101 136.675C62.0038 136.538 61.9187 136.428 61.8458 136.346C61.781 136.257 61.7121 136.192 61.6392 136.151C61.5663 136.103 61.4852 136.073 61.3961 136.059C61.307 136.045 61.1976 136.038 61.068 136.038H60.2051V139.775C60.2051 139.96 60.2416 140.09 60.3145 140.165C60.3955 140.24 60.5576 140.278 60.8006 140.278H61.0072C61.0639 140.278 61.1044 140.302 61.1288 140.35C61.1531 140.398 61.1652 140.449 61.1652 140.504C61.1652 140.565 61.1531 140.617 61.1288 140.658C61.1044 140.705 61.0639 140.729 61.0072 140.729H58.2363C58.1877 140.729 58.1472 140.705 58.1148 140.658C58.0905 140.617 58.0783 140.565 58.0783 140.504C58.0783 140.449 58.0905 140.398 58.1148 140.35C58.1472 140.302 58.1877 140.278 58.2363 140.278H58.4794C58.7225 140.278 58.8845 140.237 58.9655 140.155C59.0546 140.079 59.0992 139.939 59.0992 139.734V136.038H58.0662C57.8798 136.038 57.734 136.073 57.6287 136.141C57.5314 136.209 57.4018 136.381 57.2398 136.654L57.1304 136.849C57.0899 136.904 57.021 136.921 56.9238 136.901C56.8266 136.873 56.7901 136.829 56.8144 136.767L57.1182 135.607H62.3319L62.575 136.88Z" fill="#FFFBFB"/>
<path d="M56.072 140.073C56.1206 140.073 56.1611 140.083 56.1935 140.103C56.234 140.131 56.2543 140.161 56.2543 140.196C56.2462 140.298 56.1813 140.401 56.0598 140.504C55.9383 140.606 55.7884 140.688 55.6101 140.75C55.5372 140.784 55.4603 140.808 55.3792 140.822C55.3063 140.836 55.2375 140.842 55.1726 140.842C54.8972 140.842 54.6784 140.784 54.5164 140.668C54.3624 140.552 54.2612 140.37 54.2125 140.124C53.8642 140.384 53.532 140.569 53.216 140.678C52.9 140.788 52.5476 140.842 52.1587 140.842C51.5996 140.842 51.1662 140.74 50.8583 140.534C50.5504 140.329 50.3965 140.035 50.3965 139.652C50.3965 139.248 50.5383 138.895 50.8218 138.594C51.1135 138.293 51.5389 138.05 52.0979 137.866C52.2519 137.818 52.3977 137.777 52.5354 137.742C52.6732 137.701 52.819 137.66 52.9729 137.619C53.135 137.585 53.3132 137.551 53.5077 137.517C53.7021 137.482 53.9371 137.445 54.2125 137.404V136.911C54.2125 136.617 54.1032 136.384 53.8844 136.213C53.6657 136.042 53.3618 135.956 52.9729 135.956C52.6651 135.956 52.3855 136.011 52.1344 136.121C51.8913 136.23 51.7819 136.346 51.8062 136.47C51.8062 136.497 51.8103 136.524 51.8184 136.552C51.8265 136.579 51.8346 136.606 51.8427 136.634C51.8508 136.661 51.8508 136.692 51.8427 136.726C51.8427 136.754 51.8386 136.784 51.8305 136.819C51.7819 136.955 51.7009 137.051 51.5875 137.106C51.4822 137.161 51.3728 137.188 51.2594 137.188C51.0892 137.188 50.9434 137.137 50.8218 137.034C50.7084 136.931 50.6517 136.805 50.6517 136.654C50.6517 136.497 50.7125 136.35 50.834 136.213C50.9555 136.076 51.1257 135.956 51.3444 135.854C51.5551 135.751 51.8062 135.669 52.0979 135.607C52.3896 135.546 52.7015 135.515 53.0337 135.515C53.7224 135.515 54.2693 135.635 54.6744 135.874C55.0876 136.107 55.2942 136.428 55.2942 136.839V139.559C55.2942 139.785 55.3144 139.949 55.3549 140.052C55.3954 140.148 55.4603 140.196 55.5494 140.196C55.5818 140.196 55.6345 140.185 55.7074 140.165C55.7803 140.151 55.8492 140.134 55.914 140.114C55.9302 140.107 55.9423 140.1 55.9504 140.093C55.9666 140.093 55.9788 140.09 55.9869 140.083C55.995 140.083 56.0031 140.079 56.0112 140.073C56.0274 140.073 56.0477 140.073 56.072 140.073ZM54.2125 139.487V137.794C53.848 137.876 53.5644 137.944 53.3618 137.999C53.1593 138.054 52.9446 138.126 52.7177 138.215C52.3369 138.358 52.0412 138.55 51.8305 138.789C51.6199 139.022 51.5146 139.272 51.5146 139.539C51.5146 139.737 51.5915 139.901 51.7455 140.031C51.8994 140.155 52.102 140.216 52.3531 140.216C52.6529 140.216 52.9567 140.158 53.2646 140.042C53.5806 139.919 53.8966 139.734 54.2125 139.487Z" fill="#FFFBFB"/>
<path d="M46.5835 134.581L44.396 140.586C44.3635 140.661 44.2906 140.699 44.1772 140.699C44.0638 140.699 43.9909 140.661 43.9584 140.586L41.382 134.581L40.9323 139.867C40.9161 139.97 40.9404 140.072 41.0053 140.175C41.0782 140.278 41.2969 140.329 41.6615 140.329H42.0261C42.0828 140.329 42.1233 140.35 42.1476 140.391C42.1719 140.439 42.1841 140.486 42.1841 140.534C42.1841 140.596 42.1719 140.647 42.1476 140.688C42.1233 140.736 42.0828 140.76 42.0261 140.76H39.158C39.1013 140.76 39.0608 140.736 39.0365 140.688C39.0122 140.647 39 140.596 39 140.534C39 140.486 39.0122 140.439 39.0365 140.391C39.0608 140.35 39.1013 140.329 39.158 140.329H39.559C39.8993 140.329 40.1221 140.295 40.2275 140.226C40.3409 140.158 40.4098 140.028 40.4341 139.836L40.9202 134.016C40.9364 133.886 40.9283 133.79 40.8959 133.729C40.8716 133.66 40.8311 133.606 40.7743 133.565C40.7095 133.544 40.5921 133.52 40.4219 133.493C40.2599 133.465 40.1181 133.452 39.9966 133.452H39.6441C39.5874 133.452 39.5469 133.431 39.5226 133.39C39.4983 133.342 39.4861 133.287 39.4861 133.226C39.4861 133.164 39.4983 133.113 39.5226 133.072C39.5469 133.024 39.5874 133 39.6441 133H41.9897L44.4567 138.82L46.4377 133H49.0992C49.1478 133 49.1883 133.024 49.2207 133.072C49.2531 133.113 49.2693 133.164 49.2693 133.226C49.2693 133.287 49.2531 133.342 49.2207 133.39C49.1883 133.431 49.1478 133.452 49.0992 133.452H48.6252C48.3335 133.452 48.0986 133.489 47.9203 133.565C47.7421 133.64 47.6651 133.766 47.6894 133.944L48.3943 139.806C48.4186 140.004 48.4753 140.137 48.5645 140.206C48.6536 140.281 48.8237 140.319 49.0749 140.319L49.4881 140.329C49.5448 140.329 49.5853 140.35 49.6096 140.391C49.6339 140.439 49.6461 140.486 49.6461 140.534C49.6461 140.596 49.6339 140.647 49.6096 140.688C49.5853 140.736 49.5448 140.76 49.4881 140.76H46.1582C46.1095 140.76 46.0731 140.736 46.0488 140.688C46.0245 140.647 46.0123 140.596 46.0123 140.534C46.0123 140.486 46.0245 140.439 46.0488 140.391C46.0731 140.35 46.1095 140.329 46.1582 140.329H46.4863C46.6888 140.329 46.8468 140.315 46.9603 140.288C47.0737 140.268 47.1588 140.233 47.2155 140.185C47.2641 140.144 47.2884 140.096 47.2884 140.042C47.2965 139.987 47.2965 139.929 47.2884 139.867L46.5835 134.581Z" fill="#FFFBFB"/>
<defs>
<linearGradient id="paint0_linear_1543_448" x1="197.303" y1="-10.9401" x2="118.118" y2="166.813" gradientUnits="userSpaceOnUse">
<stop stop-color="#86D2F4"/>
<stop offset="1" stop-color="#4E7A8E"/>
</linearGradient>
<linearGradient id="paint1_linear_1543_448" x1="62.7785" y1="106.418" x2="240.582" y2="153.51" gradientUnits="userSpaceOnUse">
<stop offset="0.168269" stop-color="#FFA7A3"/>
<stop offset="1" stop-color="#211553"/>
</linearGradient>
<linearGradient id="paint2_linear_1543_448" x1="207.183" y1="33.3604" x2="30.236" y2="202.388" gradientUnits="userSpaceOnUse">
<stop stop-color="#006344"/>
<stop offset="0.560304" stop-color="#3AD4B0"/>
</linearGradient>
<linearGradient id="paint3_linear_1543_448" x1="207.183" y1="33.3604" x2="30.236" y2="202.388" gradientUnits="userSpaceOnUse">
<stop stop-color="#006344"/>
<stop offset="0.560304" stop-color="#3AD4B0"/>
</linearGradient>
</defs>
</svg>
